<mxfile host="app.diagrams.net" agent="Mozilla/5.0 (X11; CrOS x86_64 14541.0.0) AppleWebKit/537.36 (KHTML, like Gecko) Chrome/126.0.0.0 Safari/537.36" version="26.0.16">
  <diagram name="Page-1" id="hTqdF-e7lOscqvMxLip4">
    <mxGraphModel dx="880" dy="426" grid="1" gridSize="10" guides="1" tooltips="1" connect="1" arrows="1" fold="1" page="1" pageScale="1" pageWidth="850" pageHeight="1100" math="0" shadow="0">
      <root>
        <mxCell id="0" />
        <mxCell id="1" parent="0" />
        <mxCell id="7aQB0vsyOE-kVPlmIeDC-1" value="&lt;p style=&quot;margin:0px;margin-top:4px;text-align:center;&quot;&gt;&lt;b&gt;AK::IAkInPlaceEffectPlugin&lt;/b&gt;&lt;br&gt;&lt;/p&gt;&lt;hr size=&quot;1&quot; style=&quot;border-style:solid;&quot;&gt;&lt;div style=&quot;height: 2px;&quot;&gt;&lt;ul&gt;&lt;li&gt;Applies Digital Signal Processing to existing sounds fed as audio input data&amp;nbsp;&lt;/li&gt;&lt;li&gt;Init: Prepares the plugin for processing data and allocates memory&lt;/li&gt;&lt;li&gt;Term: Called when program is terminated&lt;/li&gt;&lt;li&gt;Reset: Sets plugin back to its original state&lt;/li&gt;&lt;li&gt;GetPluginInfo: A mechanism that gives plugin info to the sound engine to determine behavior&lt;/li&gt;&lt;li&gt;Execute: Starts DSP execution&lt;/li&gt;&lt;/ul&gt;&lt;/div&gt;" style="verticalAlign=top;align=left;overflow=fill;html=1;whiteSpace=wrap;" vertex="1" parent="1">
          <mxGeometry x="350" y="190" width="270" height="190" as="geometry" />
        </mxCell>
      </root>
    </mxGraphModel>
  </diagram>
</mxfile>
